<mxfile host="app.diagrams.net" modified="2023-11-14T16:51:50.675Z" agent="Mozilla/5.0 (Windows NT 10.0; Win64; x64) AppleWebKit/537.36 (KHTML, like Gecko) Chrome/119.0.0.0 Safari/537.36" etag="H-nVJi-iHi5PKp4LWWdG" version="22.1.1" type="google">
  <diagram name="Page-1" id="-Q5EGKy93Tn7ZgomlFF-">
    <mxGraphModel grid="1" page="1" gridSize="10" guides="1" tooltips="1" connect="1" arrows="1" fold="1" pageScale="1" pageWidth="827" pageHeight="1169" math="0" shadow="0">
      <root>
        <mxCell id="0" />
        <mxCell id="1" parent="0" />
        <mxCell id="xhW1zTZC0TCG4TIcdJWn-1" value="" style="rounded=1;whiteSpace=wrap;html=1;arcSize=16;" vertex="1" parent="1">
          <mxGeometry x="100" y="20" width="650" height="740" as="geometry" />
        </mxCell>
        <mxCell id="xhW1zTZC0TCG4TIcdJWn-2" value="" style="edgeStyle=orthogonalEdgeStyle;rounded=0;orthogonalLoop=1;jettySize=auto;html=1;exitX=0.5;exitY=0.5;exitDx=0;exitDy=0;exitPerimeter=0;" edge="1" parent="1" source="xhW1zTZC0TCG4TIcdJWn-3" target="xhW1zTZC0TCG4TIcdJWn-5">
          <mxGeometry relative="1" as="geometry">
            <mxPoint x="19.97" y="259.03030303030323" as="sourcePoint" />
            <mxPoint x="45" y="-17" as="targetPoint" />
            <Array as="points">
              <mxPoint y="259" />
              <mxPoint y="132" />
            </Array>
          </mxGeometry>
        </mxCell>
        <mxCell id="xhW1zTZC0TCG4TIcdJWn-3" value="Manager" style="shape=umlActor;verticalLabelPosition=bottom;verticalAlign=top;html=1;outlineConnect=0;" vertex="1" parent="1">
          <mxGeometry x="-70" y="472" width="30" height="60" as="geometry" />
        </mxCell>
        <mxCell id="xhW1zTZC0TCG4TIcdJWn-4" value="Employé" style="shape=umlActor;verticalLabelPosition=bottom;verticalAlign=top;html=1;outlineConnect=0;" vertex="1" parent="1">
          <mxGeometry x="-70" y="109" width="30" height="60" as="geometry" />
        </mxCell>
        <mxCell id="xhW1zTZC0TCG4TIcdJWn-5" value="Collaborateur" style="shape=umlActor;verticalLabelPosition=bottom;verticalAlign=top;html=1;outlineConnect=0;" vertex="1" parent="1">
          <mxGeometry x="60" y="109" width="30" height="60" as="geometry" />
        </mxCell>
        <mxCell id="xhW1zTZC0TCG4TIcdJWn-6" value="&lt;font style=&quot;font-size: 18px;&quot;&gt;App&amp;nbsp; (Notes de frais)&lt;/font&gt;" style="text;html=1;strokeColor=none;fillColor=none;align=center;verticalAlign=middle;whiteSpace=wrap;rounded=0;" vertex="1" parent="1">
          <mxGeometry x="290" y="710" width="270" height="40" as="geometry" />
        </mxCell>
        <mxCell id="xhW1zTZC0TCG4TIcdJWn-7" value="&lt;font style=&quot;font-size: 12px;&quot;&gt;Gérer les notes de frais d&#39;une mission&lt;/font&gt;" style="ellipse;whiteSpace=wrap;html=1;" vertex="1" parent="1">
          <mxGeometry x="260" y="180" width="170" height="68.5" as="geometry" />
        </mxCell>
        <mxCell id="xhW1zTZC0TCG4TIcdJWn-8" value="Se connecter" style="ellipse;whiteSpace=wrap;html=1;" vertex="1" parent="1">
          <mxGeometry x="275" y="30" width="140" height="70" as="geometry" />
        </mxCell>
        <mxCell id="xhW1zTZC0TCG4TIcdJWn-13" value="&amp;lt;&amp;lt;extends&amp;gt;&amp;gt;" style="endArrow=open;startArrow=none;endFill=0;startFill=0;endSize=8;html=1;verticalAlign=bottom;dashed=1;labelBackgroundColor=none;rounded=0;exitX=0;exitY=0.5;exitDx=0;exitDy=0;entryX=1;entryY=0.5;entryDx=0;entryDy=0;" edge="1" parent="1" source="xhW1zTZC0TCG4TIcdJWn-12" target="xhW1zTZC0TCG4TIcdJWn-7">
          <mxGeometry x="0.2647" y="-6" width="160" relative="1" as="geometry">
            <mxPoint x="279" y="100" as="sourcePoint" />
            <mxPoint x="380" y="85" as="targetPoint" />
            <mxPoint as="offset" />
          </mxGeometry>
        </mxCell>
        <mxCell id="xhW1zTZC0TCG4TIcdJWn-15" value="Admin" style="shape=umlActor;verticalLabelPosition=bottom;verticalAlign=top;html=1;outlineConnect=0;" vertex="1" parent="1">
          <mxGeometry x="-70" y="580" width="30" height="60" as="geometry" />
        </mxCell>
        <mxCell id="xhW1zTZC0TCG4TIcdJWn-16" value="" style="endArrow=none;html=1;rounded=0;entryX=0.5;entryY=0.5;entryDx=0;entryDy=0;entryPerimeter=0;" edge="1" parent="1" target="xhW1zTZC0TCG4TIcdJWn-4">
          <mxGeometry relative="1" as="geometry">
            <mxPoint y="139" as="sourcePoint" />
            <mxPoint x="190" y="272" as="targetPoint" />
          </mxGeometry>
        </mxCell>
        <mxCell id="xhW1zTZC0TCG4TIcdJWn-17" value="" style="endArrow=none;html=1;rounded=0;entryX=0.5;entryY=0.5;entryDx=0;entryDy=0;entryPerimeter=0;" edge="1" parent="1" target="xhW1zTZC0TCG4TIcdJWn-15">
          <mxGeometry relative="1" as="geometry">
            <mxPoint y="260" as="sourcePoint" />
            <mxPoint x="30" y="612" as="targetPoint" />
            <Array as="points">
              <mxPoint y="612" />
            </Array>
          </mxGeometry>
        </mxCell>
        <mxCell id="xhW1zTZC0TCG4TIcdJWn-19" value="&amp;lt;&amp;lt;includes&amp;gt;&amp;gt;" style="endArrow=open;startArrow=none;endFill=0;startFill=0;endSize=8;html=1;verticalAlign=bottom;dashed=1;labelBackgroundColor=none;rounded=0;entryX=0.5;entryY=1;entryDx=0;entryDy=0;exitX=0.5;exitY=0;exitDx=0;exitDy=0;" edge="1" parent="1" source="xhW1zTZC0TCG4TIcdJWn-7" target="xhW1zTZC0TCG4TIcdJWn-8">
          <mxGeometry x="-0.1111" y="35" width="160" relative="1" as="geometry">
            <mxPoint x="216" y="364" as="sourcePoint" />
            <mxPoint x="220" y="75" as="targetPoint" />
            <mxPoint as="offset" />
          </mxGeometry>
        </mxCell>
        <mxCell id="xhW1zTZC0TCG4TIcdJWn-30" value="Saisir une note de frais d&#39;une mission" style="ellipse;whiteSpace=wrap;html=1;" vertex="1" parent="1">
          <mxGeometry x="247.5" y="430" width="195" height="70" as="geometry" />
        </mxCell>
        <mxCell id="xhW1zTZC0TCG4TIcdJWn-32" value="&amp;lt;&amp;lt;includes&amp;gt;&amp;gt;" style="endArrow=open;startArrow=none;endFill=0;startFill=0;endSize=8;html=1;verticalAlign=bottom;dashed=1;labelBackgroundColor=none;rounded=0;entryX=0.5;entryY=1;entryDx=0;entryDy=0;" edge="1" parent="1" source="xhW1zTZC0TCG4TIcdJWn-30" target="xhW1zTZC0TCG4TIcdJWn-7">
          <mxGeometry x="0.2121" y="35" width="160" relative="1" as="geometry">
            <mxPoint x="160" y="480" as="sourcePoint" />
            <mxPoint x="360" y="280" as="targetPoint" />
            <mxPoint as="offset" />
          </mxGeometry>
        </mxCell>
        <mxCell id="xhW1zTZC0TCG4TIcdJWn-33" value="Ajouter un frais" style="ellipse;whiteSpace=wrap;html=1;align=center;" vertex="1" parent="1">
          <mxGeometry x="390" y="610" width="170" height="60" as="geometry" />
        </mxCell>
        <mxCell id="xhW1zTZC0TCG4TIcdJWn-34" value="Supprimer un frais" style="ellipse;whiteSpace=wrap;html=1;align=center;" vertex="1" parent="1">
          <mxGeometry x="560" y="325" width="180" height="60" as="geometry" />
        </mxCell>
        <mxCell id="xhW1zTZC0TCG4TIcdJWn-35" value="Modifier un frais" style="ellipse;whiteSpace=wrap;html=1;align=center;" vertex="1" parent="1">
          <mxGeometry x="540" y="500" width="175" height="60" as="geometry" />
        </mxCell>
        <mxCell id="xhW1zTZC0TCG4TIcdJWn-36" value="&amp;lt;&amp;lt;extends&amp;gt;&amp;gt;" style="endArrow=open;startArrow=none;endFill=0;startFill=0;endSize=8;html=1;verticalAlign=bottom;dashed=1;labelBackgroundColor=none;rounded=0;exitX=0;exitY=1;exitDx=0;exitDy=0;entryX=1;entryY=0;entryDx=0;entryDy=0;" edge="1" parent="1" source="xhW1zTZC0TCG4TIcdJWn-34" target="xhW1zTZC0TCG4TIcdJWn-30">
          <mxGeometry x="-0.0681" y="-17" width="160" relative="1" as="geometry">
            <mxPoint x="279" y="100" as="sourcePoint" />
            <mxPoint x="380" y="85" as="targetPoint" />
            <mxPoint as="offset" />
          </mxGeometry>
        </mxCell>
        <mxCell id="xhW1zTZC0TCG4TIcdJWn-37" value="&amp;lt;&amp;lt;extends&amp;gt;&amp;gt;" style="endArrow=open;startArrow=none;endFill=0;startFill=0;endSize=8;html=1;verticalAlign=bottom;dashed=1;labelBackgroundColor=none;rounded=0;entryX=1;entryY=0.5;entryDx=0;entryDy=0;" edge="1" parent="1" source="xhW1zTZC0TCG4TIcdJWn-35" target="xhW1zTZC0TCG4TIcdJWn-30">
          <mxGeometry x="0.0306" y="-7" width="160" relative="1" as="geometry">
            <mxPoint x="532" y="186" as="sourcePoint" />
            <mxPoint x="640" y="170" as="targetPoint" />
            <mxPoint as="offset" />
          </mxGeometry>
        </mxCell>
        <mxCell id="xhW1zTZC0TCG4TIcdJWn-38" value="&amp;lt;&amp;lt;extends&amp;gt;&amp;gt;" style="endArrow=open;startArrow=none;endFill=0;startFill=0;endSize=8;html=1;verticalAlign=bottom;dashed=1;labelBackgroundColor=none;rounded=0;exitX=0.5;exitY=0;exitDx=0;exitDy=0;entryX=1;entryY=1;entryDx=0;entryDy=0;" edge="1" parent="1" source="xhW1zTZC0TCG4TIcdJWn-33" target="xhW1zTZC0TCG4TIcdJWn-30">
          <mxGeometry x="-0.5725" y="-32" width="160" relative="1" as="geometry">
            <mxPoint x="542" y="196" as="sourcePoint" />
            <mxPoint x="650" y="180" as="targetPoint" />
            <mxPoint as="offset" />
          </mxGeometry>
        </mxCell>
        <mxCell id="xhW1zTZC0TCG4TIcdJWn-39" value="Valider sa note de frais" style="ellipse;whiteSpace=wrap;html=1;align=center;" vertex="1" parent="1">
          <mxGeometry x="150" y="600" width="170" height="60" as="geometry" />
        </mxCell>
        <mxCell id="xhW1zTZC0TCG4TIcdJWn-40" value="&amp;lt;&amp;lt;extends&amp;gt;&amp;gt;" style="endArrow=open;startArrow=none;endFill=0;startFill=0;endSize=8;html=1;verticalAlign=bottom;dashed=1;labelBackgroundColor=none;rounded=0;entryX=0;entryY=1;entryDx=0;entryDy=0;exitX=0.5;exitY=0;exitDx=0;exitDy=0;" edge="1" parent="1" source="xhW1zTZC0TCG4TIcdJWn-39" target="xhW1zTZC0TCG4TIcdJWn-30">
          <mxGeometry x="0.2374" y="-32" width="160" relative="1" as="geometry">
            <mxPoint x="532" y="264" as="sourcePoint" />
            <mxPoint x="650" y="370" as="targetPoint" />
            <mxPoint as="offset" />
          </mxGeometry>
        </mxCell>
        <mxCell id="xhW1zTZC0TCG4TIcdJWn-12" value="Exporter en pdf une note de frais" style="ellipse;whiteSpace=wrap;html=1;align=center;" vertex="1" parent="1">
          <mxGeometry x="610" y="169" width="120" height="60" as="geometry" />
        </mxCell>
        <mxCell id="TatzuET6JQd3Jn-MGhWM-12" value="" style="endArrow=none;html=1;rounded=0;exitX=0.5;exitY=0.5;exitDx=0;exitDy=0;exitPerimeter=0;entryX=0;entryY=0.5;entryDx=0;entryDy=0;" edge="1" parent="1" source="xhW1zTZC0TCG4TIcdJWn-5" target="xhW1zTZC0TCG4TIcdJWn-7">
          <mxGeometry width="50" height="50" relative="1" as="geometry">
            <mxPoint x="340" y="320" as="sourcePoint" />
            <mxPoint x="390" y="270" as="targetPoint" />
          </mxGeometry>
        </mxCell>
        <mxCell id="TatzuET6JQd3Jn-MGhWM-13" value="" style="endArrow=none;html=1;rounded=0;entryX=0;entryY=0;entryDx=0;entryDy=0;" edge="1" parent="1" target="xhW1zTZC0TCG4TIcdJWn-30">
          <mxGeometry width="50" height="50" relative="1" as="geometry">
            <mxPoint x="80" y="140" as="sourcePoint" />
            <mxPoint x="390" y="270" as="targetPoint" />
          </mxGeometry>
        </mxCell>
      </root>
    </mxGraphModel>
  </diagram>
</mxfile>
